<svg width="300" height="45" viewBox="0 0 300 45" fill="none" xmlns="http://www.w3.org/2000/svg">
<rect width="300" height="45" rx="8" fill="#050708"/>
<g clip-path="url(#clip0_5290_44335)">
<path d="M29.9608 27.318C29.7 27.9206 29.3912 28.4754 29.0334 28.9854C28.5457 29.6807 28.1465 30.162 27.8387 30.4293C27.3617 30.868 26.8506 31.0926 26.3033 31.1054C25.9104 31.1054 25.4366 30.9936 24.885 30.7668C24.3317 30.5411 23.8231 30.4293 23.3581 30.4293C22.8705 30.4293 22.3474 30.5411 21.788 30.7668C21.2277 30.9936 20.7764 31.1118 20.4313 31.1235C19.9064 31.1459 19.3833 30.9148 18.8611 30.4293C18.5278 30.1386 18.111 29.6403 17.6116 28.9343C17.0758 28.1805 16.6353 27.3063 16.2902 26.3096C15.9206 25.2331 15.7354 24.1907 15.7354 23.1815C15.7354 22.0255 15.9851 21.0284 16.4855 20.1929C16.8787 19.5218 17.4018 18.9923 18.0566 18.6037C18.7113 18.2151 19.4188 18.017 20.1806 18.0043C20.5975 18.0043 21.1441 18.1333 21.8235 18.3867C22.5009 18.641 22.9358 18.7699 23.1265 18.7699C23.2691 18.7699 23.7523 18.6191 24.5714 18.3185C25.3461 18.0398 25.9999 17.9244 26.5354 17.9698C27.9867 18.087 29.0771 18.6591 29.8022 19.6898C28.5042 20.4762 27.8622 21.5777 27.8749 22.9908C27.8866 24.0915 28.2859 25.0074 29.0707 25.7346C29.4263 26.0722 29.8235 26.3331 30.2654 26.5183C30.1695 26.7962 30.0684 27.0624 29.9608 27.318ZM26.6323 14.2201C26.6323 15.0828 26.3172 15.8883 25.6889 16.6339C24.9308 17.5202 24.0138 18.0323 23.0194 17.9515C23.0068 17.848 22.9994 17.7391 22.9994 17.6246C22.9994 16.7964 23.3599 15.9101 24.0002 15.1854C24.3198 14.8185 24.7264 14.5134 25.2194 14.27C25.7113 14.0303 26.1766 13.8977 26.6142 13.875C26.627 13.9903 26.6323 14.1057 26.6323 14.2201V14.2201Z" fill="white"/>
</g>
<path d="M115.735 24.328L115.245 22.76C115.058 22.172 114.881 21.598 114.713 21.038C114.545 20.4687 114.377 19.8853 114.209 19.288H114.153C113.994 19.8947 113.831 20.478 113.663 21.038C113.495 21.598 113.318 22.172 113.131 22.76L112.627 24.328H115.735ZM116.057 25.364H112.305L111.311 28.5H109.995L113.481 18.238H114.923L118.409 28.5H117.037L116.057 25.364ZM119.745 20.898H120.795L120.907 21.766H120.949C121.294 21.486 121.672 21.2387 122.083 21.024C122.494 20.8093 122.923 20.702 123.371 20.702C123.856 20.702 124.286 20.7953 124.659 20.982C125.042 21.1687 125.359 21.43 125.611 21.766C125.872 22.102 126.068 22.508 126.199 22.984C126.33 23.46 126.395 23.992 126.395 24.58C126.395 25.2333 126.302 25.8167 126.115 26.33C125.938 26.834 125.695 27.2633 125.387 27.618C125.088 27.9633 124.738 28.2293 124.337 28.416C123.945 28.5933 123.53 28.682 123.091 28.682C122.746 28.682 122.396 28.6073 122.041 28.458C121.686 28.2993 121.336 28.08 120.991 27.8L121.019 29.13V31.706H119.745V20.898ZM122.881 27.618C123.198 27.618 123.488 27.548 123.749 27.408C124.02 27.268 124.253 27.072 124.449 26.82C124.645 26.5587 124.794 26.2413 124.897 25.868C125.009 25.4947 125.065 25.07 125.065 24.594C125.065 24.174 125.028 23.7913 124.953 23.446C124.878 23.1007 124.762 22.8067 124.603 22.564C124.444 22.312 124.239 22.1207 123.987 21.99C123.735 21.85 123.427 21.78 123.063 21.78C122.736 21.78 122.405 21.8687 122.069 22.046C121.742 22.2233 121.392 22.4847 121.019 22.83V26.82C121.364 27.1187 121.696 27.3287 122.013 27.45C122.34 27.562 122.629 27.618 122.881 27.618ZM128.427 20.898H129.477L129.589 21.766H129.631C129.976 21.486 130.354 21.2387 130.765 21.024C131.175 20.8093 131.605 20.702 132.053 20.702C132.538 20.702 132.967 20.7953 133.341 20.982C133.723 21.1687 134.041 21.43 134.293 21.766C134.554 22.102 134.75 22.508 134.881 22.984C135.011 23.46 135.077 23.992 135.077 24.58C135.077 25.2333 134.983 25.8167 134.797 26.33C134.619 26.834 134.377 27.2633 134.069 27.618C133.77 27.9633 133.42 28.2293 133.019 28.416C132.627 28.5933 132.211 28.682 131.773 28.682C131.427 28.682 131.077 28.6073 130.723 28.458C130.368 28.2993 130.018 28.08 129.673 27.8L129.701 29.13V31.706H128.427V20.898ZM131.563 27.618C131.88 27.618 132.169 27.548 132.431 27.408C132.701 27.268 132.935 27.072 133.131 26.82C133.327 26.5587 133.476 26.2413 133.579 25.868C133.691 25.4947 133.747 25.07 133.747 24.594C133.747 24.174 133.709 23.7913 133.635 23.446C133.56 23.1007 133.443 22.8067 133.285 22.564C133.126 22.312 132.921 22.1207 132.669 21.99C132.417 21.85 132.109 21.78 131.745 21.78C131.418 21.78 131.087 21.8687 130.751 22.046C130.424 22.2233 130.074 22.4847 129.701 22.83V26.82C130.046 27.1187 130.377 27.3287 130.695 27.45C131.021 27.562 131.311 27.618 131.563 27.618ZM137.108 28.5V17.356H138.382V28.5H137.108ZM144.002 28.682C143.498 28.682 143.022 28.5933 142.574 28.416C142.136 28.2387 141.753 27.982 141.426 27.646C141.1 27.3007 140.838 26.8807 140.642 26.386C140.456 25.8913 140.362 25.3313 140.362 24.706C140.362 24.09 140.456 23.5347 140.642 23.04C140.838 22.5453 141.095 22.1253 141.412 21.78C141.73 21.4347 142.094 21.1687 142.504 20.982C142.924 20.7953 143.354 20.702 143.792 20.702C144.278 20.702 144.707 20.786 145.08 20.954C145.454 21.122 145.766 21.3647 146.018 21.682C146.28 21.99 146.476 22.3633 146.606 22.802C146.746 23.2407 146.816 23.7307 146.816 24.272C146.816 24.412 146.812 24.5473 146.802 24.678C146.793 24.7993 146.779 24.9067 146.76 25H141.636C141.683 25.8213 141.93 26.47 142.378 26.946C142.836 27.422 143.428 27.66 144.156 27.66C144.53 27.66 144.87 27.6087 145.178 27.506C145.486 27.394 145.78 27.2447 146.06 27.058L146.522 27.898C146.186 28.1127 145.813 28.2993 145.402 28.458C144.992 28.6073 144.525 28.682 144.002 28.682ZM145.696 24.09C145.696 23.3153 145.528 22.7273 145.192 22.326C144.866 21.9247 144.404 21.724 143.806 21.724C143.536 21.724 143.274 21.78 143.022 21.892C142.78 21.9947 142.56 22.1487 142.364 22.354C142.168 22.55 142.005 22.7973 141.874 23.096C141.744 23.3853 141.66 23.7167 141.622 24.09H145.696ZM159.538 27.044V27.982H148.128V27.044H153.238V24.678H149.556V20.8H157.004V18.84H149.528V17.902H158.124V21.724H150.69V23.754H158.418V24.678H154.4V27.044H159.538ZM175.548 27.044V27.982H164.138V27.044H169.248V24.678H165.566V20.8H173.014V18.84H165.538V17.902H174.134V21.724H166.7V23.754H174.428V24.678H170.41V27.044H175.548ZM185.739 19.246H178.263V18.308H186.341V18.322H186.873V19.568C186.873 19.9693 186.868 20.3847 186.859 20.814C186.859 21.2433 186.84 21.71 186.803 22.214C186.775 22.7087 186.728 23.2407 186.663 23.81C186.598 24.3793 186.504 25.0047 186.383 25.686L185.235 25.56C185.487 24.2813 185.632 23.1567 185.669 22.186C185.716 21.2153 185.739 20.3427 185.739 19.568V19.246ZM188.399 26.75V27.702H177.045V26.75H188.399ZM200.214 26.162H199.066V16.992H200.214V26.162ZM191.324 20.94C191.324 21.248 191.375 21.5327 191.478 21.794C191.59 22.0553 191.739 22.2793 191.926 22.466C192.122 22.6527 192.351 22.7973 192.612 22.9C192.873 23.0027 193.158 23.054 193.466 23.054C193.774 23.054 194.059 23.0027 194.32 22.9C194.591 22.7973 194.824 22.6527 195.02 22.466C195.216 22.2793 195.365 22.0553 195.468 21.794C195.58 21.5327 195.636 21.248 195.636 20.94C195.636 20.632 195.58 20.352 195.468 20.1C195.365 19.848 195.216 19.6287 195.02 19.442C194.824 19.2553 194.591 19.1107 194.32 19.008C194.059 18.9053 193.774 18.854 193.466 18.854C193.158 18.854 192.873 18.9053 192.612 19.008C192.351 19.1107 192.122 19.2553 191.926 19.442C191.739 19.6287 191.59 19.848 191.478 20.1C191.375 20.352 191.324 20.632 191.324 20.94ZM196.756 20.94C196.756 21.3973 196.672 21.8173 196.504 22.2C196.336 22.5733 196.103 22.9 195.804 23.18C195.515 23.4507 195.169 23.6653 194.768 23.824C194.367 23.9733 193.933 24.048 193.466 24.048C192.999 24.048 192.565 23.9733 192.164 23.824C191.772 23.6653 191.427 23.4507 191.128 23.18C190.839 22.9 190.61 22.5733 190.442 22.2C190.283 21.8173 190.204 21.3973 190.204 20.94C190.204 20.492 190.283 20.0813 190.442 19.708C190.61 19.3253 190.839 18.9987 191.128 18.728C191.427 18.448 191.772 18.2333 192.164 18.084C192.565 17.9347 192.999 17.86 193.466 17.86C193.933 17.86 194.367 17.9347 194.768 18.084C195.169 18.2333 195.515 18.448 195.804 18.728C196.103 18.9987 196.336 19.3253 196.504 19.708C196.672 20.0813 196.756 20.492 196.756 20.94ZM200.592 28.318V29.256H192.136V25.224H193.284V28.318H200.592Z" fill="white"/>
<defs>
<clipPath id="clip0_5290_44335">
<rect width="18" height="18" fill="white" transform="translate(14 13.5)"/>
</clipPath>
</defs>
</svg>
